<?xml version="1.0" encoding="UTF-8"?>
<svg width="462px" height="500px" viewBox="0 0 462 500" version="1.1" xmlns="http://www.w3.org/2000/svg" xmlns:xlink="http://www.w3.org/1999/xlink">
    <title>undraw_date_picker_gorr</title>
    <g id="Page-1" stroke="none" stroke-width="1" fill="none" fill-rule="evenodd">
        <g id="undraw_date_picker_gorr" transform="translate(-0.001002, -0.001002)" fill-rule="nonzero">
            <path d="M453.926752,499.781352 L34.9267518,499.781352 C30.7864896,499.781352 27.4312711,496.421614 27.4267518,492.281352 L27.4267518,35.2813518 C27.4312711,31.1410896 30.7864896,27.7813518 34.9267518,27.7813518 L453.926752,27.7813518 C458.067014,27.7813518 461.422233,31.1410896 461.426752,35.2813518 L461.426752,492.281352 C461.422233,496.421614 458.067014,499.781352 453.926752,499.781352 L453.926752,499.781352 Z M34.9267518,30.7813518 C32.4425967,30.7813518 30.4267518,32.7971967 30.4267518,35.2813518 L30.4267518,492.281352 C30.4267518,494.765509 32.4425944,496.781352 34.9267518,496.781352 L453.926752,496.781352 C456.410911,496.781352 458.426752,494.765511 458.426752,492.281352 L458.426752,35.2813518 C458.426752,32.7971944 456.410909,30.7813518 453.926752,30.7813518 L34.9267518,30.7813518 Z" id="Shape" fill="#E6E6E6"></path>
            <circle id="Oval" fill="#E6E6E6" cx="121.388982" cy="188.284302" r="9.84302"></circle>
            <circle id="Oval" fill="#E6E6E6" cx="162.401572" cy="188.284302" r="9.84302"></circle>
            <circle id="Oval" fill="#428BCA" cx="203.414162" cy="188.284302" r="9.84302"></circle>
            <circle id="Oval" fill="#428BCA" cx="244.426752" cy="188.284302" r="9.84302"></circle>
            <circle id="Oval" fill="#428BCA" cx="285.439352" cy="188.284302" r="9.84302"></circle>
            <circle id="Oval" fill="#E6E6E6" cx="326.451942" cy="188.284302" r="9.84302"></circle>
            <circle id="Oval" fill="#E6E6E6" cx="367.464532" cy="188.284302" r="9.84302"></circle>
            <circle id="Oval" fill="#E6E6E6" cx="121.388982" cy="219.453872" r="9.84302"></circle>
            <circle id="Oval" fill="#E6E6E6" cx="162.401572" cy="219.453872" r="9.84302"></circle>
            <circle id="Oval" fill="#E6E6E6" cx="203.414162" cy="219.453872" r="9.84302"></circle>
            <circle id="Oval" fill="#E6E6E6" cx="244.426752" cy="219.453872" r="9.84302"></circle>
            <circle id="Oval" fill="#E6E6E6" cx="285.439352" cy="219.453872" r="9.84302"></circle>
            <circle id="Oval" fill="#E6E6E6" cx="326.451942" cy="219.453872" r="9.84302"></circle>
            <circle id="Oval" fill="#E6E6E6" cx="367.464532" cy="219.453872" r="9.84302"></circle>
            <circle id="Oval" fill="#428BCA" cx="121.388982" cy="250.623432" r="9.84302"></circle>
            <circle id="Oval" fill="#428BCA" cx="162.401572" cy="250.623432" r="9.84302"></circle>
            <circle id="Oval" fill="#428BCA" cx="203.414162" cy="250.623432" r="9.84302"></circle>
            <circle id="Oval" fill="#E6E6E6" cx="244.426752" cy="250.623432" r="9.84302"></circle>
            <circle id="Oval" fill="#E6E6E6" cx="285.439352" cy="250.623432" r="9.84302"></circle>
            <circle id="Oval" fill="#E6E6E6" cx="326.451942" cy="250.623432" r="9.84302"></circle>
            <circle id="Oval" fill="#E6E6E6" cx="367.464532" cy="250.623432" r="9.84302"></circle>
            <circle id="Oval" fill="#E6E6E6" cx="121.388982" cy="281.793002" r="9.84302"></circle>
            <circle id="Oval" fill="#E6E6E6" cx="162.401572" cy="281.793002" r="9.84302"></circle>
            <circle id="Oval" fill="#E6E6E6" cx="121.388982" cy="312.962572" r="9.84302"></circle>
            <circle id="Oval" fill="#E6E6E6" cx="162.401572" cy="312.962572" r="9.84302"></circle>
            <circle id="Oval" fill="#E6E6E6" cx="203.414162" cy="312.962572" r="9.84302"></circle>
            <circle id="Oval" fill="#E6E6E6" cx="203.414162" cy="281.793002" r="9.84302"></circle>
            <circle id="Oval" fill="#428BCA" cx="244.426752" cy="281.793002" r="9.84302"></circle>
            <circle id="Oval" fill="#428BCA" cx="285.439352" cy="281.793002" r="9.84302"></circle>
            <circle id="Oval" fill="#428BCA" cx="326.451942" cy="281.793002" r="9.84302"></circle>
            <circle id="Oval" fill="#E6E6E6" cx="367.464532" cy="281.793002" r="9.84302"></circle>
            <path d="M169.915422,101.279702 C166.669666,101.333113 164.066437,103.979531 164.066437,107.225727 C164.066437,110.471922 166.669666,113.118341 169.915422,113.171752 L319.001142,113.171752 C321.126977,113.209003 323.110969,112.108479 324.204805,110.285272 C325.298641,108.462064 325.335886,106.193587 324.302493,104.335453 C323.269099,102.47732 321.322304,101.312258 319.196392,101.279702 C319.131312,101.278588 319.066228,101.278588 319.001142,101.279702 L169.915422,101.279702 Z" id="a332a05d-d774-4fd2-8531-ab97682a63e9-571" fill="#3F3D56"></path>
            <path d="M352.810132,99.6240518 C352.590687,99.843473 352.467402,100.141086 352.467402,100.451412 C352.467402,100.761737 352.590687,101.059351 352.810132,101.278772 L357.832952,106.301642 L345.447142,106.301642 C344.800935,106.301642 344.277082,106.825495 344.277082,107.471702 C344.277082,108.117908 344.800935,108.641762 345.447142,108.641762 L357.832952,108.641762 L352.810132,113.664632 C352.353193,114.121556 352.353182,114.862388 352.810107,115.319327 C353.267031,115.776265 354.007863,115.776276 354.464802,115.319352 L361.485102,108.299062 C361.94202,107.842115 361.94202,107.101288 361.485102,106.644342 L354.464802,99.6240518 C354.245383,99.4046219 353.94778,99.2813467 353.637467,99.2813467 C353.327154,99.2813467 353.029551,99.4046219 352.810132,99.6240518 L352.810132,99.6240518 Z" id="Path" fill="#E6E6E6"></path>
            <path d="M136.043382,99.6240518 C136.262827,99.843473 136.386112,100.141086 136.386112,100.451412 C136.386112,100.761737 136.262827,101.059351 136.043382,101.278772 L131.020562,106.301642 L143.406372,106.301642 C144.052578,106.301642 144.576432,106.825495 144.576432,107.471702 C144.576432,108.117908 144.052578,108.641762 143.406372,108.641762 L131.020562,108.641762 L136.043382,113.664632 C136.50032,114.121559 136.500329,114.862393 136.043402,115.319332 C135.586475,115.77627 134.84564,115.776279 134.388702,115.319352 L127.368412,108.299062 C126.911494,107.842115 126.911494,107.101288 127.368412,106.644342 L134.388702,99.6240518 C134.608121,99.4046189 134.905726,99.2813417 135.216042,99.2813417 C135.526357,99.2813417 135.823962,99.4046189 136.043382,99.6240518 L136.043382,99.6240518 Z" id="Path" fill="#E6E6E6"></path>
            <path d="M161.581322,385.628257 C153.958603,385.623042 146.912686,389.686717 143.099819,396.287316 C139.286951,402.887916 139.286951,411.021697 143.099819,417.622297 C146.912686,424.222897 153.958603,428.286572 161.581322,428.281357 L327.272192,428.281357 C334.894911,428.286572 341.940828,424.222897 345.753695,417.622297 C349.566562,411.021697 349.566562,402.887916 345.753695,396.287316 C341.940828,389.686717 334.894911,385.623042 327.272192,385.628257 L161.581322,385.628257 Z" id="Path" fill="#E6E6E6"></path>
            <path d="M34.2734818,68.5459618 C20.4115576,68.5459618 7.91456771,60.1957401 2.60983898,47.3889921 C-2.69488975,34.582244 0.237318168,19.8410394 10.0391788,10.0391788 C19.8410394,0.237318168 34.582244,-2.69488975 47.3889921,2.60983898 C60.1957401,7.91456771 68.5459618,20.4115576 68.5459618,34.2734818 C68.5246015,53.192795 53.192795,68.5246015 34.2734818,68.5459618 Z" id="Path" fill="#428BCA"></path>
            <path d="M47.7964818,30.8927718 L37.6542918,30.8927718 L37.6542918,20.7504418 C37.6542918,18.883272 36.1406516,17.3696318 34.2734818,17.3696318 C32.406312,17.3696318 30.8926718,18.883272 30.8926718,20.7504418 L30.8926718,30.8927718 L20.7503418,30.8927718 C18.8831996,30.8927718 17.3695818,32.4063896 17.3695818,34.2735318 C17.3695818,36.140674 18.8831996,37.6542918 20.7503418,37.6542918 L30.8926718,37.6542918 L30.8926718,47.7966118 C30.8926718,49.6637816 32.406312,51.1774218 34.2734818,51.1774218 C36.1406516,51.1774218 37.6542918,49.6637816 37.6542918,47.7966118 L37.6542918,37.6542918 L47.7964818,37.6542918 C49.663624,37.6542918 51.1772418,36.140674 51.1772418,34.2735318 C51.1772418,32.4063896 49.663624,30.8927718 47.7964818,30.8927718 Z" id="Path" fill="#FFFFFF"></path>
        </g>
    </g>
</svg>