<svg xmlns="http://www.w3.org/2000/svg" data-name="Layer 1" width="232.02585" height="217.55348" viewBox="0 0 232.02585 217.55348" xmlns:xlink="http://www.w3.org/1999/xlink"><path d="M602.05585,539.47366c27.444,27.91563,79.43126,25.11985,103.72313-5.578C669.19712,538.62725,632.61526,543.35887,602.05585,539.47366Z" transform="translate(-483.98707 -341.22326)" fill="#aaa7a7"/><path d="M584.211,449.50346c38.20288,17.25686,87.186,6.35109,114.45895-25.48355C665.07737,449.588,619.32021,458.36746,584.211,449.50346Z" transform="translate(-483.98707 -341.22326)" fill="#aaa7a7"/><path d="M577.55645,349.85808c37.60931,25.67476,91.68558,24.13017,127.76807-3.64946l-70.79638,15.71463C613.76028,359.63654,592.99241,357.34982,577.55645,349.85808Z" transform="translate(-483.98707 -341.22326)" fill="#aaa7a7"/><path d="M506.027,341.22326c-29.425.72929-29.34836,43.83809.00068,44.64709C535.45337,385.14106,535.37673,342.0326,506.027,341.22326Z" transform="translate(-483.98707 -341.22326)"/><path d="M509.62679,424.01991c-29.425.72929-29.34836,43.83809.00068,44.64709C539.05315,467.93771,538.97651,424.82891,509.62679,424.01991Z" transform="translate(-483.98707 -341.22326)"/><path d="M516.82669,514.01612c-29.425.72929-29.34836,43.83809.00068,44.64709C546.25306,557.93392,546.17641,514.82546,516.82669,514.01612Z" transform="translate(-483.98707 -341.22326)"/><path d="M687.27159,346.61953c-37.953-1.712-76.37543,2.03765-113.64174,9.16159,18.145,2.14222,27.47455,3.66313,44.35585,4.93709,25.32688,1.463,50.34446-4.44522,74.6096-11.08853C704.62227,346.88215,692.88449,347.4459,687.27159,346.61953Z" transform="translate(-483.98707 -341.22326)"/><path d="M687.27159,437.92862c-37.953-1.712-76.37543,2.03765-113.64174,9.16159,18.145,2.14222,27.47455,3.66313,44.35585,4.93709,25.32688,1.463,50.34446-4.44522,74.6096-11.08853C704.62227,438.19124,692.88449,438.755,687.27159,437.92862Z" transform="translate(-483.98707 -341.22326)"/><path d="M705.46365,529.23771c-37.953-1.712-76.37543,2.03765-113.64174,9.16159,18.145,2.14222,27.47455,3.66313,44.35585,4.93709,25.32688,1.463,50.34446-4.44522,74.6096-11.08854C722.81433,529.50033,711.07655,530.06407,705.46365,529.23771Z" transform="translate(-483.98707 -341.22326)"/></svg>