<?xml version="1.0" encoding="UTF-8"?>
<svg width="439px" height="445px" viewBox="0 0 439 445" version="1.1" xmlns="http://www.w3.org/2000/svg" xmlns:xlink="http://www.w3.org/1999/xlink">
    <title>reviews</title>
    <g id="Page-1" stroke="none" stroke-width="1" fill="none" fill-rule="evenodd">
        <g id="reviews" fill-rule="nonzero">
            <path d="M432.00012,391 L7,391 C3.13580468,390.995663 0,387.864195 0,384 L0,257 C0,253.135805 3.13580468,250.004337 7,250 L432.00012,250 C435.864318,250.004332 439.00012,253.135802 439.00012,257 L439.00012,384 C439.00012,387.864198 435.864318,390.995668 432.00012,391 Z M7,252 C4.23990123,252.003196 2,254.239901 2,257 L2,384 C2,386.760099 4.23990123,388.996804 7,389 L432.00012,389 C434.760237,388.996848 437.00012,386.760117 437.00012,384 L437.00012,257 C437.00012,254.239883 434.760237,252.003152 432.00012,252 L7,252 Z" id="Shape" fill="#3F3D56"></path>
            <path d="M192.97513,444.47522 C192.142017,444.471894 191.331578,444.203528 190.66113,443.70897 L185.0847,439.65757 C184.13535,438.964291 182.84671,438.964291 181.89736,439.65757 L176.32093,443.70897 C174.941284,444.711364 173.073103,444.711441 171.693374,443.709161 C170.313645,442.70688 169.736164,440.930194 170.26293,439.30824 L172.39301,432.75291 C172.758374,431.63557 172.360342,430.410161 171.40813,429.72079 L165.8317,425.66939 C164.451976,424.667016 163.87462,422.89021 164.401597,421.268271 C164.928575,419.646331 166.440019,418.548189 168.14542,418.54819 L175.03842,418.54819 C176.213745,418.55033 177.255923,417.793177 177.61713,416.67473 L179.74691,410.1194 C180.273838,408.497255 181.785419,407.398938 183.491,407.398938 C185.196581,407.398938 186.708162,408.497255 187.23509,410.1194 L189.36486,416.67473 C189.72607,417.793175 190.768246,418.550327 191.94357,418.54819 L198.83657,418.54819 C200.541934,418.54826 202.053314,419.646405 202.580278,421.26831 C203.107242,422.890215 202.529935,424.666983 201.15028,425.66939 L195.57386,429.72079 C194.621647,430.41016 194.223612,431.635568 194.58897,432.75291 L196.71905,439.30824 C197.2658,440.930035 196.684564,442.718475 195.28883,443.70897 C194.61847,444.203479 193.808142,444.471843 192.97513,444.47522 L192.97513,444.47522 Z" id="Path" fill="#428BCA"></path>
            <path d="M249.48354,444.47522 C248.650428,444.471892 247.839989,444.203526 247.16954,443.70897 L241.59311,439.65757 C240.64376,438.964291 239.35512,438.964291 238.40577,439.65757 L232.82934,443.70897 C231.449696,444.711379 229.581506,444.711463 228.201771,443.709179 C226.822037,442.706894 226.244559,440.930197 226.77134,439.30824 L228.90142,432.75291 C229.266775,431.635568 228.86874,430.410162 227.91653,429.72079 L222.3401,425.66939 C220.96051,424.666899 220.383294,422.89011 220.910317,421.268227 C221.43734,419.646344 222.948739,418.548241 224.6541,418.54819 L231.5468,418.54819 C232.722122,418.550329 233.764297,417.793175 234.1255,416.67473 L236.25558,410.1194 C236.782432,408.497263 238.29397,407.39893 239.99952,407.39893 C241.70507,407.39893 243.216608,408.497263 243.74346,410.1194 L245.87324,416.67473 C246.234566,417.793216 247.276841,418.550354 248.45224,418.54819 L255.34494,418.54819 C257.050301,418.548241 258.5617,419.646344 259.088723,421.268227 C259.615746,422.89011 259.03853,424.666899 257.65894,425.66939 L252.08251,429.72079 C251.130107,430.410022 250.731929,431.635505 251.09733,432.75291 L253.2274,439.30824 C253.77415,440.930035 253.192914,442.718475 251.79718,443.70897 C251.126838,444.203468 250.316532,444.471832 249.48354,444.47522 L249.48354,444.47522 Z" id="Path" fill="#428BCA"></path>
            <path d="M305.99194,444.47522 C305.158921,444.471846 304.348586,444.203481 303.67822,443.70897 L298.1018,439.65757 C297.151749,438.966091 295.864201,438.966091 294.91415,439.65757 L289.33773,443.70897 C287.958122,444.711388 286.089947,444.711463 284.710258,443.709155 C283.33057,442.706848 282.753183,440.930137 283.28007,439.30824 L285.40985,432.75291 C285.775214,431.63557 285.377182,430.410161 284.42497,429.72079 L278.84854,425.66939 C277.46895,424.666899 276.891734,422.89011 277.418757,421.268227 C277.94578,419.646344 279.457179,418.548241 281.16254,418.54819 L288.05524,418.54819 C289.230565,418.55033 290.272743,417.793177 290.63395,416.67473 L292.76403,410.1194 C293.290876,408.49726 294.802414,407.398923 296.507965,407.398923 C298.213516,407.398923 299.725054,408.49726 300.2519,410.1194 L302.38198,416.67473 C302.74319,417.793175 303.785366,418.550327 304.96069,418.54819 L311.85339,418.54819 C313.558751,418.548241 315.07015,419.646344 315.597173,421.268227 C316.124196,422.89011 315.54698,424.666899 314.16739,425.66939 L308.59096,429.72079 C307.638748,430.410161 307.240716,431.63557 307.60608,432.75291 L309.73586,439.30824 C310.282565,440.929969 309.701477,442.718329 308.30594,443.70897 C307.635469,444.203484 306.825045,444.471845 305.99194,444.47522 L305.99194,444.47522 Z" id="Path" fill="#428BCA"></path>
            <path d="M362.50064,444.47522 C361.667527,444.471892 360.857089,444.203527 360.18664,443.70897 L354.61021,439.65757 C353.66086,438.964291 352.37222,438.964291 351.42287,439.65757 L345.84639,443.709 C344.466746,444.711409 342.598556,444.711493 341.218821,443.709209 C339.839087,442.706924 339.261609,440.930227 339.78839,439.30827 L341.91846,432.75294 C342.283959,431.635714 341.885738,430.410338 340.93328,429.72142 L335.35685,425.66942 C333.97726,424.666929 333.400044,422.89014 333.927067,421.268257 C334.45409,419.646374 335.965489,418.548271 337.67085,418.54822 L344.56355,418.54822 C345.738949,418.550384 346.781224,417.793246 347.14255,416.67476 L349.27233,410.11943 C349.799182,408.497293 351.31072,407.39896 353.01627,407.39896 C354.72182,407.39896 356.233358,408.497293 356.76021,410.11943 L358.89029,416.67476 C359.251493,417.793205 360.293668,418.550359 361.46899,418.54822 L368.36169,418.54822 C370.067051,418.548271 371.57845,419.646374 372.105473,421.268257 C372.632496,422.89014 372.05528,424.666929 370.67569,425.66942 L365.09926,429.72082 C364.14705,430.410192 363.749015,431.635598 364.11437,432.75294 L366.24445,439.30827 C366.791233,440.93003 366.210065,442.718461 364.81439,443.709 C364.144013,444.203508 363.333666,444.471862 362.50064,444.47522 Z" id="Path" fill="#428BCA"></path>
            <path d="M400.0409,444.86377 C399.126079,444.860092 398.236121,444.565634 397.49964,444.02295 C395.966357,442.934576 395.327831,440.969772 395.92835,439.18795 L398.05872,432.63277 C398.371581,431.675282 398.030409,430.625329 397.21448,430.03463 L391.63782,425.98287 C390.122216,424.881792 389.488021,422.929993 390.066946,421.148344 C390.645871,419.366695 392.306223,418.16048 394.17957,418.1606 L401.07239,418.1606 C402.079795,418.162487 402.973045,417.513386 403.28239,416.55465 L405.41276,409.99947 C405.991668,408.217885 407.651909,407.011671 409.52519,407.011671 C411.398471,407.011671 413.058712,408.217885 413.63762,409.99947 L415.7675,416.55465 C416.077008,417.513354 416.970275,418.162409 417.9777,418.1606 L424.87053,418.1606 C426.743777,418.160671 428.403956,419.36689 428.982848,421.148445 C429.56174,422.93 428.927684,424.8817 427.41227,425.98287 L421.83586,430.03463 C421.019573,430.625068 420.678236,431.67523 420.99138,432.63277 L423.1215,439.18795 C423.700282,440.969601 423.066054,442.921315 421.550503,444.022392 C420.034951,445.12347 417.982774,445.123481 416.46721,444.02242 L410.89103,439.97115 C410.077084,439.377392 408.972806,439.377392 408.15886,439.97115 L402.58244,444.02242 C401.846048,444.565546 400.955911,444.860216 400.0409,444.86377 Z M409.52503,437.5249 C410.43841,437.52505 411.328189,437.815006 412.06629,438.35303 L417.6427,442.4043 C418.457173,442.996383 419.560299,442.996558 420.37496,442.404734 C421.189621,441.81291 421.530443,440.763754 421.21912,439.80615 L419.08924,433.25098 C418.50668,431.469319 419.14163,429.51537 420.66024,428.4165 L426.23641,424.36475 C427.0509,423.772947 427.391705,422.723997 427.08059,421.766484 C426.769474,420.80897 425.8772,420.160673 424.87041,420.16064 L417.97758,420.16064 C416.103206,420.164111 414.441176,418.956564 413.86528,417.17285 L411.73515,410.61768 C411.424093,409.66003 410.531726,409.011621 409.524825,409.011621 C408.517924,409.011621 407.625557,409.66003 407.3145,410.61768 L405.18437,417.17285 C404.608644,418.956583 402.94665,420.164175 401.07231,420.16064 L394.17949,420.16064 C393.172662,420.160582 392.280304,420.808847 391.969133,421.766384 C391.657962,422.72392 391.998758,423.772924 392.81328,424.36475 L398.38994,428.4165 C399.908272,429.515573 400.543089,431.469362 399.96074,433.25098 L397.83037,439.80615 C397.519275,440.763713 397.860157,441.812691 398.674728,442.404451 C399.489299,442.996211 400.592274,442.99615 401.40678,442.4043 L406.98344,438.35303 C407.721673,437.815018 408.611551,437.525068 409.52503,437.5249 L409.52503,437.5249 Z" id="Shape" fill="#3F3D56"></path>
            <path d="M55.00002,280 C51.4101691,280 48.50002,282.910149 48.50002,286.5 C48.50002,290.089851 51.4101691,293 55.00002,293 L384.00002,293 C387.589871,293 390.50002,290.089851 390.50002,286.5 C390.50002,282.910149 387.589871,280 384.00002,280 L55.00002,280 Z" id="Path" fill="#CCCCCC"></path>
            <path d="M55.00002,314 C51.4101691,314 48.50002,316.910149 48.50002,320.5 C48.50002,324.089851 51.4101691,327 55.00002,327 L384.00002,327 C387.589871,327 390.50002,324.089851 390.50002,320.5 C390.50002,316.910149 387.589871,314 384.00002,314 L55.00002,314 Z" id="Path" fill="#CCCCCC"></path>
            <path d="M55.00002,348 C51.4101691,348 48.50002,350.910149 48.50002,354.5 C48.50002,358.089851 51.4101691,361 55.00002,361 L384.00002,361 C387.589871,361 390.50002,358.089851 390.50002,354.5 C390.50002,350.910149 387.589871,348 384.00002,348 L55.00002,348 Z" id="Path" fill="#CCCCCC"></path>
            <path d="M55.00002,280 C51.4101691,280 48.50002,282.910149 48.50002,286.5 C48.50002,290.089851 51.4101691,293 55.00002,293 L384.00002,293 C387.589871,293 390.50002,290.089851 390.50002,286.5 C390.50002,282.910149 387.589871,280 384.00002,280 L55.00002,280 Z" id="Path" fill="#CCCCCC"></path>
            <path d="M55.00002,314 C51.4101691,314 48.50002,316.910149 48.50002,320.5 C48.50002,324.089851 51.4101691,327 55.00002,327 L384.00002,327 C387.589871,327 390.50002,324.089851 390.50002,320.5 C390.50002,316.910149 387.589871,314 384.00002,314 L55.00002,314 Z" id="Path" fill="#CCCCCC"></path>
            <path d="M55.00002,348 C51.4101691,348 48.50002,350.910149 48.50002,354.5 C48.50002,358.089851 51.4101691,361 55.00002,361 L384.00002,361 C387.589871,361 390.50002,358.089851 390.50002,354.5 C390.50002,350.910149 387.589871,348 384.00002,348 L55.00002,348 Z" id="Path" fill="#CCCCCC"></path>
            <path d="M432.00012,141 L7,141 C3.13580468,140.995663 2.84217094e-14,137.864195 2.84217094e-14,134 L2.84217094e-14,7 C2.84217094e-14,3.13580468 3.13580468,0.0043371494 7,0 L432.00012,0 C435.864318,0.00433165023 439.00012,3.1358024 439.00012,7 L439.00012,134 C439.00012,137.864198 435.864318,140.995668 432.00012,141 Z M7,2 C4.23990123,2.00319616 2,4.23990123 2,7 L2,134 C2,136.760099 4.23990123,138.996804 7,139 L432.00012,139 C434.760237,138.996848 437.00012,136.760117 437.00012,134 L437.00012,7 C437.00012,4.23988298 434.760237,2.00315217 432.00012,2 L7,2 Z" id="Shape" fill="#3F3D56"></path>
            <path d="M192.97513,194.47522 C192.142017,194.471894 191.331578,194.203528 190.66113,193.70897 L185.0847,189.65757 C184.13535,188.964291 182.84671,188.964291 181.89736,189.65757 L176.32093,193.70897 C174.941284,194.711364 173.073103,194.711441 171.693374,193.709161 C170.313645,192.70688 169.736164,190.930194 170.26293,189.30824 L172.39301,182.75291 C172.758374,181.63557 172.360342,180.410161 171.40813,179.72079 L165.8317,175.66939 C164.451976,174.667016 163.87462,172.89021 164.401597,171.268271 C164.928575,169.646331 166.440019,168.548189 168.14542,168.54819 L175.03842,168.54819 C176.213745,168.55033 177.255923,167.793177 177.61713,166.67473 L179.74691,160.1194 C180.273838,158.497255 181.785419,157.398938 183.491,157.398938 C185.196581,157.398938 186.708162,158.497255 187.23509,160.1194 L189.36486,166.67473 C189.72607,167.793175 190.768246,168.550327 191.94357,168.54819 L198.83657,168.54819 C200.541934,168.54826 202.053314,169.646405 202.580278,171.26831 C203.107242,172.890215 202.529935,174.666983 201.15028,175.66939 L195.57386,179.72079 C194.621647,180.41016 194.223612,181.635568 194.58897,182.75291 L196.71905,189.30824 C197.2658,190.930035 196.684564,192.718475 195.28883,193.70897 C194.61847,194.203479 193.808142,194.471843 192.97513,194.47522 L192.97513,194.47522 Z" id="Path" fill="#428BCA"></path>
            <path d="M249.48354,194.47522 C248.650428,194.471892 247.839989,194.203526 247.16954,193.70897 L241.59311,189.65757 C240.64376,188.964291 239.35512,188.964291 238.40577,189.65757 L232.82934,193.70897 C231.449696,194.711379 229.581506,194.711463 228.201771,193.709179 C226.822037,192.706894 226.244559,190.930197 226.77134,189.30824 L228.90142,182.75291 C229.266775,181.635568 228.86874,180.410162 227.91653,179.72079 L222.3401,175.66939 C220.96051,174.666899 220.383294,172.89011 220.910317,171.268227 C221.43734,169.646344 222.948739,168.548241 224.6541,168.54819 L231.5468,168.54819 C232.722122,168.550329 233.764297,167.793175 234.1255,166.67473 L236.25558,160.1194 C236.782432,158.497263 238.29397,157.39893 239.99952,157.39893 C241.70507,157.39893 243.216608,158.497263 243.74346,160.1194 L245.87324,166.67473 C246.234566,167.793216 247.276841,168.550354 248.45224,168.54819 L255.34494,168.54819 C257.050301,168.548241 258.5617,169.646344 259.088723,171.268227 C259.615746,172.89011 259.03853,174.666899 257.65894,175.66939 L252.08251,179.72079 C251.130107,180.410022 250.731929,181.635505 251.09733,182.75291 L253.2274,189.30824 C253.77415,190.930035 253.192914,192.718475 251.79718,193.70897 C251.126838,194.203468 250.316532,194.471832 249.48354,194.47522 L249.48354,194.47522 Z" id="Path" fill="#428BCA"></path>
            <path d="M305.99194,194.47522 C305.158921,194.471846 304.348586,194.203481 303.67822,193.70897 L298.1018,189.65757 C297.151749,188.966091 295.864201,188.966091 294.91415,189.65757 L289.33773,193.70897 C287.958122,194.711388 286.089947,194.711463 284.710258,193.709155 C283.33057,192.706848 282.753183,190.930137 283.28007,189.30824 L285.40985,182.75291 C285.775214,181.63557 285.377182,180.410161 284.42497,179.72079 L278.84854,175.66939 C277.46895,174.666899 276.891734,172.89011 277.418757,171.268227 C277.94578,169.646344 279.457179,168.548241 281.16254,168.54819 L288.05524,168.54819 C289.230565,168.55033 290.272743,167.793177 290.63395,166.67473 L292.76403,160.1194 C293.290876,158.49726 294.802414,157.398923 296.507965,157.398923 C298.213516,157.398923 299.725054,158.49726 300.2519,160.1194 L302.38198,166.67473 C302.74319,167.793175 303.785366,168.550327 304.96069,168.54819 L311.85339,168.54819 C313.558751,168.548241 315.07015,169.646344 315.597173,171.268227 C316.124196,172.89011 315.54698,174.666899 314.16739,175.66939 L308.59096,179.72079 C307.638748,180.410161 307.240716,181.63557 307.60608,182.75291 L309.73586,189.30824 C310.282565,190.929969 309.701477,192.718329 308.30594,193.70897 C307.635469,194.203484 306.825045,194.471845 305.99194,194.47522 L305.99194,194.47522 Z" id="Path" fill="#428BCA"></path>
            <path d="M400.0409,194.86377 C399.126079,194.860092 398.236121,194.565634 397.49964,194.02295 C395.966357,192.934576 395.327831,190.969772 395.92835,189.18795 L398.05872,182.63277 C398.371581,181.675282 398.030409,180.625329 397.21448,180.03463 L391.63782,175.98287 C390.122216,174.881792 389.488021,172.929993 390.066946,171.148344 C390.645871,169.366695 392.306223,168.16048 394.17957,168.1606 L401.07239,168.1606 C402.079809,168.16248 402.973063,167.513356 403.28239,166.5546 L405.41276,159.99942 C405.991668,158.217835 407.651909,157.011621 409.52519,157.011621 C411.398471,157.011621 413.058712,158.217835 413.63762,159.99942 L415.7675,166.5546 C416.07699,167.513324 416.970261,168.162403 417.9777,168.1606 L424.87053,168.1606 C426.743777,168.160671 428.403956,169.36689 428.982848,171.148445 C429.56174,172.93 428.927684,174.8817 427.41227,175.98287 L421.83586,180.03463 C421.019573,180.625068 420.678236,181.67523 420.99138,182.63277 L423.1215,189.18795 C423.700282,190.969601 423.066054,192.921315 421.550503,194.022392 C420.034951,195.12347 417.982774,195.123481 416.46721,194.02242 L410.89103,189.97115 C410.077084,189.377392 408.972806,189.377392 408.15886,189.97115 L402.58244,194.02242 C401.846048,194.565546 400.955911,194.860216 400.0409,194.86377 Z M409.52503,187.5249 C410.43841,187.52505 411.328189,187.815006 412.06629,188.35303 L417.6427,192.4043 C418.457173,192.996383 419.560299,192.996558 420.37496,192.404734 C421.189621,191.81291 421.530443,190.763754 421.21912,189.80615 L419.08924,183.25098 C418.50668,181.469319 419.14163,179.51537 420.66024,178.4165 L426.23641,174.36475 C427.0509,173.772947 427.391705,172.723997 427.08059,171.766484 C426.769474,170.80897 425.8772,170.160673 424.87041,170.16064 L417.97758,170.16064 C416.103206,170.164111 414.441176,168.956564 413.86528,167.17285 L411.73515,160.61768 C411.424093,159.66003 410.531726,159.011621 409.524825,159.011621 C408.517924,159.011621 407.625557,159.66003 407.3145,160.61768 L405.18437,167.17285 C404.608644,168.956583 402.94665,170.164175 401.07231,170.16064 L394.17949,170.16064 C393.172662,170.160582 392.280304,170.808847 391.969133,171.766384 C391.657962,172.72392 391.998758,173.772924 392.81328,174.36475 L398.38994,178.4165 C399.908272,179.515573 400.543089,181.469362 399.96074,183.25098 L397.83037,189.80615 C397.519275,190.763713 397.860157,191.812691 398.674728,192.404451 C399.489299,192.996211 400.592274,192.99615 401.40678,192.4043 L406.98344,188.35303 C407.721673,187.815018 408.611551,187.525068 409.52503,187.5249 L409.52503,187.5249 Z" id="Shape" fill="#3F3D56"></path>
            <path d="M343.0409,194.70313 C342.126078,194.699448 341.23612,194.404986 340.49964,193.8623 C338.966357,192.773926 338.327831,190.809122 338.92835,189.0273 L341.05872,182.47213 C341.371579,181.514639 341.030408,180.464684 340.21448,179.87398 L334.63782,175.82223 C333.122251,174.721142 332.488082,172.769364 333.067003,170.987738 C333.645924,169.206111 335.306246,167.999904 337.17957,168 L344.07239,168 C345.079808,168.001877 345.97306,167.352754 346.28239,166.394 L348.41276,159.83883 C348.991668,158.057245 350.651909,156.851031 352.52519,156.851031 C354.398471,156.851031 356.058712,158.057245 356.63762,159.83883 L358.7675,166.394 C359.076993,167.352722 359.970262,168.001799 360.9777,168 L367.87053,168 C369.743777,168.000071 371.403956,169.20629 371.982848,170.987845 C372.56174,172.7694 371.927684,174.7211 370.41227,175.82227 L364.83586,179.87402 C364.019574,180.464464 363.678238,181.514627 363.99138,182.47217 L366.1215,189.02734 C366.700289,190.808992 366.066064,192.760712 364.55051,193.861793 C363.034957,194.962874 360.982775,194.962885 359.46721,193.86182 L353.89103,189.81055 C353.077084,189.216792 351.972806,189.216792 351.15886,189.81055 L345.58244,193.86182 C344.84604,194.404926 343.955906,194.699582 343.0409,194.70313 L343.0409,194.70313 Z M352.52503,187.36426 C353.438409,187.364411 354.328186,187.654363 355.06629,188.19238 L360.6427,192.24365 C361.457171,192.835729 362.560293,192.835904 363.374952,192.244083 C364.189611,191.652263 364.530436,190.603113 364.21912,189.64551 L362.08924,183.09033 C361.506678,181.308672 362.141629,179.354725 363.66024,178.25586 L369.23641,174.2041 C370.050891,173.612294 370.39169,172.56335 370.080575,171.605842 C369.769461,170.648334 368.877194,170.000039 367.87041,170 L360.97758,170 C359.103206,170.003471 357.441176,168.795924 356.86528,167.01221 L354.73515,160.45703 C354.424093,159.49938 353.531726,158.850971 352.524825,158.850971 C351.517924,158.850971 350.625557,159.49938 350.3145,160.45703 L348.18437,167.01221 C347.608653,168.795915 345.946701,170.0035 344.07239,170 L337.17957,170 C336.172747,169.999948 335.280397,170.648211 334.969227,171.605742 C334.658058,172.563273 334.998847,173.612271 335.81336,174.2041 L341.39002,178.25586 C342.908353,179.354928 343.543171,181.308715 342.96082,183.09033 L340.83045,189.64551 C340.519362,190.603071 340.860246,191.652044 341.674816,192.2438 C342.489385,192.835557 343.592356,192.835497 344.40686,192.24365 L349.98352,188.19238 C350.721734,187.654392 351.61158,187.364446 352.52503,187.36426 L352.52503,187.36426 Z" id="Shape" fill="#3F3D56"></path>
            <path d="M55.00002,30 C51.4101691,30 48.50002,32.9101491 48.50002,36.5 C48.50002,40.0898509 51.4101691,43 55.00002,43 L384.00002,43 C387.589871,43 390.50002,40.0898509 390.50002,36.5 C390.50002,32.9101491 387.589871,30 384.00002,30 L55.00002,30 Z" id="Path" fill="#CCCCCC"></path>
            <path d="M55.00002,64 C51.4101691,64 48.50002,66.9101491 48.50002,70.5 C48.50002,74.0898509 51.4101691,77 55.00002,77 L384.00002,77 C387.589871,77 390.50002,74.0898509 390.50002,70.5 C390.50002,66.9101491 387.589871,64 384.00002,64 L55.00002,64 Z" id="Path" fill="#CCCCCC"></path>
            <path d="M55.00002,98 C51.4101691,98 48.50002,100.910149 48.50002,104.5 C48.50002,108.089851 51.4101691,111 55.00002,111 L384.00002,111 C387.589871,111 390.50002,108.089851 390.50002,104.5 C390.50002,100.910149 387.589871,98 384.00002,98 L55.00002,98 Z" id="Path" fill="#CCCCCC"></path>
            <path d="M55.00002,30 C51.4101691,30 48.50002,32.9101491 48.50002,36.5 C48.50002,40.0898509 51.4101691,43 55.00002,43 L384.00002,43 C387.589871,43 390.50002,40.0898509 390.50002,36.5 C390.50002,32.9101491 387.589871,30 384.00002,30 L55.00002,30 Z" id="Path" fill="#CCCCCC"></path>
            <path d="M55.00002,64 C51.4101691,64 48.50002,66.9101491 48.50002,70.5 C48.50002,74.0898509 51.4101691,77 55.00002,77 L384.00002,77 C387.589871,77 390.50002,74.0898509 390.50002,70.5 C390.50002,66.9101491 387.589871,64 384.00002,64 L55.00002,64 Z" id="Path" fill="#CCCCCC"></path>
            <path d="M55.00002,98 C51.4101691,98 48.50002,100.910149 48.50002,104.5 C48.50002,108.089851 51.4101691,111 55.00002,111 L384.00002,111 C387.589871,111 390.50002,108.089851 390.50002,104.5 C390.50002,100.910149 387.589871,98 384.00002,98 L55.00002,98 Z" id="Path" fill="#CCCCCC"></path>
        </g>
    </g>
</svg>