<svg xmlns="http://www.w3.org/2000/svg" data-name="Layer 1" width="215.56306" height="259.44155" viewBox="0 0 215.56306 259.44155" xmlns:xlink="http://www.w3.org/1999/xlink"><path d="M586.83015,579.72077c-52.86955-27.61029-89.83035-83.54515-94.49674-143.00726-2.67733-34.11593,42.00071-57.722,73.18023-43.61871s45.41629,52.37754,42.05688,86.43307S587.04871,544.51181,586.83015,579.72077Z" transform="translate(-492.21847 -320.27923)" fill="#aaa7a7"/><path d="M673.01786,379.41514l-.00148-.00147.02165.05634.002.002C673.03213,379.45328,673.02573,379.43384,673.01786,379.41514Z" transform="translate(-492.21847 -320.27923)"/><path d="M702.39867,369.60005c-9.95878-27.16151-41.16965-31.962-64.15781-17.96645a102.43549,102.43549,0,0,0-10.83026,7.15834c-8.20647-16.29681-20.88155-32.17093-38.566-37.84809-18.73459-3.4687-38.05328,7.13127-50.71508,20.36929-11.10336,12.18275-16.35684,28.20818-22.097,43.35622-7.42554,19.41933-5.63731,40.52429-.681,60.308,5.51772,24.50968,19.25029,46.01765,34.14024,65.88281,17.341,23.56832,36.81077,45.45643,55.79042,67.69465C588.877,550.94969,571.23,524.04135,556.49255,495.48109c-9.57446-18.30451-15.64677-32.086-19.09332-55.44523a154.5489,154.5489,0,0,1-1.54809-21.37388c.17912-8.24707.61314-8.191.746-9.5907,2.9712-15.12787,15.05479-38.77222,20.21281-45.33932a39.02674,39.02674,0,0,1,4.91886-4.74442,26.64787,26.64787,0,0,1,3.38209-2.08594c4.25307-2.02049,2.69711-2.00106,12.05407-4.58941l.00344-.0005c.69876-.03,1.34536-.03174,1.86844-.02239.22981.1341.46109.2645.68548.40671,8.80238,8.28,6.19631,6.10626,10.32784,11.30094q.52554.74143,1.0501,1.48363a87.39041,87.39041,0,0,1,6.54668,11.27141c1.76756,2.63092,7.16129,26.82026,29.19333,21.61476a28.82008,28.82008,0,0,0,10.11428-5.90377c1.91518-1.45878,5.222-4.00605,7.15833-5.54135,2.50815-1.85343,7.72817-5.67028,9.67977-6.69922a47.73838,47.73838,0,0,1,5.05074-2.73082,39.78476,39.78476,0,0,1,6.26028-1.89673c.40991-.02436.81735-.08415,1.22824-.07824.16633.00172.33167.031.498.03666.79226.19584,1.9024.47781,3.01057.82128.21061.11933.42171.236.62691.36488.50488.47166,1.118,1.06881,1.71,1.70975a22.34145,22.34145,0,0,1,1.38718,2.38143,101.9373,101.9373,0,0,1,3.70391,12.50925c3.59812,14.58362,2.8595,25.08566.32232,37.421-10.03948,46.74618-36.89542,82.13164-64.62874,125.9669q-4.67823,7.003-9.54592,13.87823c10.99511-10.37263,21.46664-21.28531,31.577-32.51883,21.61279-23.87834,43.75752-47.96089,57.51764-77.43766,7.01219-14.53712,13.00084-29.85543,14.72313-46.01175A112.35352,112.35352,0,0,0,702.39867,369.60005Z" transform="translate(-492.21847 -320.27923)"/></svg>